<svg xmlns="http://www.w3.org/2000/svg" fill="none" viewBox="0 0 46 46" class="aspect-square w-8 rounded-md md:w-10"><g clip-path="url(#logo_svg__clip0_11580_20738)"><path fill="currentColor" d="m22.302 7.263-.017.007c-.3.095-.595.202-.889.328-5.694 2.186-8.244 12.783-9.756 18.418-.386 1.432 1.19 1.518 1.383.688.265-1.128 2.564-4.076 4.78-4.855 3.325-1.832 10.51-.674 12.988-4.82a8.998 8.998 0 0 0 .706-1.82c-.808 7.068-10.105 6.823-13.59 8.394-1.543.695-3.196 2.48-3.49 3.037-.103 1.143-.018 4.57.067 6.094.08 1.363 1.544 1.246 1.679.233-.001-1.458 1.255-4.852 3.821-6.573 3.212-2.156 10.162-3.566 12.292-7.973-1.817 4.99-9.12 7.271-11.7 9.482-1.762 1.51-2.29 3.17-2.29 3.17.395 1.689 1.67 5.588 2.203 7.249.494 1.527 1.954.721 1.6-.285-.484-1.383-.05-5.435 1.785-7.65 2.893-3.5 10.646-7.709 10.531-14.255-.169-6.274-6.122-10.752-12.103-8.869m2.916 8.143c-2.708 1.24-5.741 1.172-7.164 1.924 2.077-5.683 4.25-7.544 7-6.78 2.84.852 1.903 4.117.164 4.856"></path></g></svg>